<svg id="Layer_1" enable-background="new 0 0 512 512" height="512" viewBox="0 0 512 512" width="512" xmlns="http://www.w3.org/2000/svg"><g><g><path d="m256.032 512c-.023 0-.041 0-.064 0-.003 0-.005 0-.007 0-65.45-.007-109.673-10.346-142.012-63.108-33.838-55.21-46.076-128.346-50.359-167.028-4.832-43.636-5.816-103.249 7.309-127.649 14.542-27.033 38.311-44.688 72.667-53.977 30.278-8.187 66.833-9.864 112.402-9.864h.064c45.569 0 82.124 1.677 112.402 9.864 34.356 9.289 58.125 26.944 72.667 53.977 13.125 24.4 12.141 84.013 7.309 127.649-4.283 38.682-16.521 111.818-50.359 167.028-32.339 52.763-76.562 63.101-142.012 63.108-.002 0-.004 0-.007 0z" fill="#72c95e"/></g><path d="m368.435 100.238c-30.11-8.141-66.436-9.843-111.653-9.862v421.622c65.041-.086 109.053-10.544 141.269-63.106 33.838-55.209 46.076-128.346 50.359-167.028 4.832-43.636 5.816-103.249-7.309-127.649-14.541-27.033-38.31-44.689-72.666-53.977z" fill="#56977d"/><g><path d="m255.959 90.25c-8.284 0-15-6.716-15-15 0-30.261 13.644-53.749 38.417-66.136 17.718-8.858 34.929-9.114 36.833-9.114 8.284 0 15 6.716 15 15 0 8.26-6.676 14.96-14.927 15-.402.007-12.668.282-24.252 6.337-14.179 7.411-21.071 20.14-21.071 38.913 0 8.285-6.716 15-15 15z" fill="#995c39"/></g><path d="m338.154 90.87c-19.054-20.308-46.51-30.61-81.606-30.62-.007 0-.013 0-.019 0h-.529c-.006 0-.012 0-.018 0-35.097.01-62.554 10.312-81.606 30.619-22.136 23.593-31.851 59.202-28.875 105.836 2.365 37.065 8.354 108.919 21.887 173.706 19.901 95.275 48.897 141.589 88.644 141.589h.464c39.747 0 68.743-46.314 88.645-141.589 13.532-64.786 19.521-136.64 21.887-173.705 2.976-46.634-6.738-82.242-28.874-105.836z" fill="#97de34"/><path d="m256.782 60.252v451.742c39.6-.222 68.505-46.539 88.359-141.584 13.532-64.786 19.521-136.64 21.887-173.705 2.977-46.634-6.737-82.242-28.873-105.835-19.012-20.263-46.389-30.561-81.373-30.618z" fill="#72c95e"/></g></svg>