<svg id="Capa_1" enable-background="new 0 0 512 512" height="512" viewBox="0 0 512 512" width="512" xmlns="http://www.w3.org/2000/svg"><path d="m367.369 32.417-21.213 21.213c-5.858 5.858-5.858 15.355 0 21.213s15.355 5.858 21.213 0l21.213-21.213c5.858-5.858 5.858-15.355 0-21.213s-15.355-5.857-21.213 0z" fill="#fff5ce"/><path d="m83.5 302h-30c-8.284 0-15 6.716-15 15s6.716 15 15 15h30c8.284 0 15-6.716 15-15s-6.716-15-15-15z" fill="#fff5ce"/><path d="m439.8 279.784-29.408-146.045c-14.501-72.009-78.111-126.239-154.392-126.239v497c103.553 0 187.5-83.947 187.5-187.5 0-12.743-1.277-25.187-3.7-37.216z" fill="#ff9c30"/><path d="m413.5 317c0-12.743-1.073-25.187-3.108-37.216l-24.702-146.045c-12.182-72.009-65.614-126.239-129.69-126.239-76.281 0-139.891 54.23-154.392 126.239l-29.408 146.045c-2.422 12.029-3.7 24.473-3.7 37.216 0 103.553 83.947 187.5 187.5 187.5 86.985 0 157.5-83.947 157.5-187.5z" fill="#ffb833"/><g fill="#fff5ce"><path d="m458.5 302h-30c-8.284 0-15 6.716-15 15s6.716 15 15 15h30c8.284 0 15-6.716 15-15s-6.716-15-15-15z"/><path d="m134.024 64.237 10.607 10.607c5.858 5.858 15.355 5.858 21.213 0s5.858-15.355 0-21.213l-10.607-10.607c-5.858-5.858-15.355-5.858-21.213 0s-5.858 15.355 0 21.213z"/><path d="m80.981 160.188 29.41 5.922c8.121 1.635 16.031-3.623 17.666-11.744s-3.623-16.031-11.744-17.666l-29.41-5.922c-8.121-1.635-16.031 3.623-17.666 11.744s3.623 16.03 11.744 17.666z"/><path d="m134.024 460.189 10.607-10.607c5.858-5.858 5.858-15.355 0-21.213s-15.355-5.858-21.213 0l-10.607 10.607c-5.858 5.858-5.858 15.355 0 21.213s15.355 5.858 21.213 0z"/></g><path d="m458.5 294.5h-8.809c-.627-5.459-1.468-10.884-2.538-16.196l-29.408-146.045c-4.9-24.333-15.349-47.231-30.268-66.915l6.409-6.409c8.773-8.773 8.773-23.047 0-31.82-8.773-8.772-23.048-8.772-31.82 0l-6.391 6.391c-28.557-21.653-63.68-33.506-99.675-33.506-36.278 0-71.677 12.05-100.355 34.034-8.572-4.812-19.64-3.598-26.925 3.687-7.285 7.286-8.499 18.356-3.684 26.928-13.716 17.892-23.662 38.511-29.11 60.296l-7.543-1.519c-12.159-2.446-24.049 5.453-26.499 17.616-1.186 5.892-.007 11.893 3.32 16.897 3.327 5.005 8.404 8.415 14.296 9.601l29.41 5.922c1.493.3 2.98.445 4.448.445 10.489 0 19.901-7.391 22.051-18.061 1.186-5.892.007-11.893-3.32-16.897-3.327-5.005-8.404-8.415-14.296-9.601l-7.148-1.439c4.753-18.635 13.133-36.316 24.585-51.858l4.097 4.097c4.25 4.25 9.9 6.59 15.91 6.59s11.661-2.341 15.91-6.59c4.25-4.25 6.59-9.9 6.59-15.91s-2.341-11.661-6.59-15.91l-4.099-4.1c25.653-18.897 56.924-29.228 88.952-29.228 71.173 0 133.012 50.56 147.04 120.219l29.408 146.045c.875 4.344 1.574 8.775 2.129 13.235h-6.077c-12.407 0-22.5 10.093-22.5 22.5s10.093 22.5 22.5 22.5h6.093c-11.146 88.954-88.059 157.501-178.593 157.501-40.022 0-78.899-13.375-110.366-37.814l4.301-4.3c8.772-8.773 8.772-23.047 0-31.82-8.772-8.771-23.047-8.772-31.82 0l-4.3 4.3c-24.44-31.467-37.815-70.344-37.815-110.366 0-12.007 1.195-24.03 3.552-35.735l17.564-87.226c.817-4.061-1.812-8.015-5.872-8.833-4.06-.819-8.015 1.812-8.833 5.872l-17.564 87.226c-1.077 5.346-1.915 10.755-2.542 16.196h-8.805c-12.407 0-22.5 10.093-22.5 22.5s10.093 22.5 22.5 22.5h8.813c4.211 36.199 18.515 70.656 41.387 99.249-1.81 3.282-2.782 6.982-2.782 10.834 0 6.01 2.341 11.661 6.59 15.91 4.25 4.25 9.9 6.59 15.91 6.59 3.852 0 7.551-.972 10.834-2.782 34.468 27.572 77.459 42.699 121.748 42.699 49.367 0 96.468-18.485 132.627-52.051 34.257-31.8 55.768-74.352 61.068-120.449h8.805c12.407 0 22.5-10.093 22.5-22.5s-10.093-22.5-22.5-22.5zm-338.902-147.247c1.109 1.668 1.502 3.668 1.106 5.632-.816 4.055-4.777 6.689-8.833 5.873l-29.41-5.922c-1.964-.396-3.656-1.532-4.766-3.2-1.109-1.668-1.502-3.668-1.106-5.632.716-3.557 3.854-6.021 7.35-6.021.489 0 .985.048 1.483.148l29.41 5.922c1.964.395 3.656 1.531 4.766 3.2zm40.942-77.712c-1.416 1.417-3.299 2.197-5.303 2.197s-3.887-.78-5.303-2.197l-10.606-10.606c-2.924-2.924-2.924-7.683 0-10.606 2.925-2.924 7.683-2.924 10.607 0l10.606 10.607c1.417 1.416 2.197 3.299 2.197 5.303s-.781 3.885-2.198 5.302zm222.739-31.82c2.924 2.924 2.924 7.683 0 10.607l-5.44 5.439c-3.364-3.688-6.898-7.232-10.599-10.615l5.431-5.432c2.926-2.922 7.683-2.923 10.608.001zm-329.779 286.779c-4.136 0-7.5-3.364-7.5-7.5s3.364-7.5 7.5-7.5h7.658c-.096 2.499-.158 5-.158 7.5 0 2.505.058 5.005.154 7.5zm69.917 132.583c-2.003 0-3.887-.78-5.303-2.197-1.417-1.416-2.197-3.299-2.197-5.303s.78-3.887 2.197-5.303l10.606-10.606c1.462-1.462 3.383-2.193 5.304-2.193 1.92 0 3.841.731 5.303 2.193 2.924 2.924 2.924 7.683 0 10.607 0 0-10.607 10.606-10.607 10.606-1.416 1.415-3.299 2.196-5.303 2.196zm335.083-132.583h-30c-4.136 0-7.5-3.364-7.5-7.5s3.364-7.5 7.5-7.5h30c4.136 0 7.5 3.364 7.5 7.5s-3.364 7.5-7.5 7.5z"/><circle cx="256" cy="67.5" r="7.5"/><circle cx="226" cy="97.5" r="7.5"/><circle cx="256" cy="127.5" r="7.5"/><circle cx="226" cy="444.5" r="7.5"/><circle cx="174.631" cy="347" r="7.5"/><circle cx="144.631" cy="377" r="7.5"/><circle cx="337.369" cy="377" r="7.5"/><circle cx="367.369" cy="317" r="7.5"/><circle cx="337.369" cy="287" r="7.5"/></svg>