<svg id="Layer_1" height="512" viewBox="0 0 512 512" width="512" xmlns="http://www.w3.org/2000/svg" data-name="Layer 1"><g fill="#869644"><path d="m249.289 140.354c-.463-.714-11.325-17.8-9.266-44.959 1.6-21.093 11.627-54.359 50.32-93.052l11.313 11.313c-35.228 35.229-45.693 64.5-45.68 82.948.024 31.396 14.65 48.266 14.734 48.396z"/><path d="m234.381 20.3c-23-22.622-52.881-20.3-58.874-20.288-18.754.264-39.507 15.562-39.507 35.988a36.041 36.041 0 0 0 36 36c21.2 0 36-13.159 36-32h-16c0 11.8-10.332 16-20 16a20.023 20.023 0 0 1 -20-20c0-18.25 24-20.133 24-20.133 7.217-.118 32 .841 47.265 15.943 13.521 13.379 19.161 34.752 16.763 63.525l15.944 1.329c2.818-33.807-4.447-59.499-21.591-76.364z"/><path d="m304 128a32.036 32.036 0 0 1 -32-32h16a16 16 0 0 0 32 0c0-11.73-13.447-15.331-17.569-16.155-13.352-2.67-25.082 1.887-34.86 13.546a71.716 71.716 0 0 0 -11.71 20.382l-15.175-5.073a87.093 87.093 0 0 1 14.286-25.183c13.678-16.552 31.174-23.247 50.6-19.362 18.483 3.698 30.428 16.198 30.428 31.845a32.036 32.036 0 0 1 -32 32z"/></g><path d="m408 136c-13.25 0-24.79 3.87-36.28 13.18-10.91-8.24-22.93-12.89-35.72-13.18-14.27-.33-27.82 5.97-40 16.68-12.17-10.71-25.72-16.68-40-16.68s-27.82 5.97-40 16.69v-.01c-12.18-10.71-25.72-16.68-40-16.68-12.73 0-24.89 4.75-36 13.38-11.11-8.63-23.27-13.38-36-13.38-53.02 0-96 82.38-96 184s42.98 184 96 184c12.73 0 24.88-4.75 36-13.37 11.12 8.62 23.27 13.37 36 13.37 14.28 0 27.83-5.97 40-16.69 12.18 10.72 25.73 16.69 40 16.69 14.36 0 27.99-6.05 40.23-16.89 12.51 10.32 28.41 18.17 42.68 17.73 12.19-.38 23.71-5.11 34.19-13.39 11.12 8.62 22.17 12.55 34.9 12.55 53.02 0 96-82.38 96-184s-42.98-184-96-184z" fill="#f79520"/><path d="m104 504c12.73 0 24.88-4.75 36-13.37 11.12 8.62 23.27 13.37 36 13.37 14.28 0 27.83-5.97 40-16.69 12.18 10.72 25.73 16.69 40 16.69 14.36 0 27.99-6.05 40.23-16.89 12.51 10.32 28.41 18.17 42.68 17.73 12.19-.38 23.71-5.11 34.19-13.39 11.12 8.62 22.17 12.55 34.9 12.55 28.4 0 53.921-23.649 71.5-61.224-19.715 9.275-47.92 16.591-71.5-.337 0 0-58.872 33.113-83.436 6.337 0 0-81.454 53.96-120.009 26.592 0 0-78.876 2.583-103.715-40.893 0 0-58.287 26.525-74.563-6.475 17.448 46.049 45.758 76 77.723 76z" fill="#d67c1a"/><path d="m296 152.68c-12.17-10.71-25.72-16.68-40-16.68s-27.82 5.97-40 16.69l-.005.005.005-.015c-12.18-10.71-25.72-16.68-40-16.68-12.73 0-24.89 4.75-36 13.38-23.83 18.48-42.9 54.77-52.73 100.25 0 0 52.988-95.379 106.776-70.16-20.82 33.748-34.046 84.173-34.046 140.53 0 38.25 6.09 73.78 16.52 103.2-16.48-219.76 119.48-270.52 119.48-270.52z" fill="#f9eee5" opacity=".3"/><path d="m296.23 487.11c32.92-29.16 55.77-93.02 55.77-167.11 0 0 35.732 98-22.634 184z" fill="#d67c1a"/><path d="m457.911 162.8c-14.543-17-31.63-26.8-49.911-26.8-13.25 0-24.79 3.87-36.28 13.18-10.91-8.24-22.93-12.89-35.72-13.18-14.27-.33-27.82 5.97-40 16.68-1.16-1.021-2.336-1.984-3.52-2.918l.52 1.238s23.336 13.267 35 47.3c0 0 17.068-51.347 66.367-24.657.001 0 25.122-27.052 63.544-10.843z" fill="#d67c1a"/><path d="m140 490.63c-35.18-27.3-60-93.41-60-170.63 0 0-46.294 83.173 31.985 183.36 9.831-1.553 19.244-5.931 28.015-12.73z" fill="#d67c1a"/><path d="m16.379 395.279c-10.411-159.967 67.413-230.013 107.613-255.271a52.838 52.838 0 0 0 -19.992-4.008c-53.02 0-96 82.38-96 184a331.927 331.927 0 0 0 8.379 75.279z" fill="#f9eee5" opacity=".3"/></svg>