<?xml version="1.0"?>
<svg xmlns="http://www.w3.org/2000/svg" viewBox="0 0 64 64" width="512" height="512"><g id="Twotone"><g id="Color_copy_2" data-name="Color copy 2"><g><path d="M42,39c-9.389,0-17-10.745-17-24A32.093,32.093,0,0,1,26.908,3.956a14.348,14.348,0,0,0-6.346,4.778,14.707,14.707,0,0,0-2.72,6.827l-.681,4.763A28.973,28.973,0,0,0,24.188,43.67,2.712,2.712,0,0,1,29,45.251L29.768,61h4.464L35,45.251a2.712,2.712,0,0,1,4.809-1.581,28.923,28.923,0,0,0,3.413-4.739A12.149,12.149,0,0,1,42,39Z" style="fill:#cff09e"/><path d="M59.976,17.394a12.769,12.769,0,0,0-16.037-6.945,15.05,15.05,0,0,1,2.219,6.112l.681,4.763A28.973,28.973,0,0,1,39.812,44.67c-.062-.075-.13-.138-.2-.2L36.75,61.482,38.682,62,44.75,45.719a1.752,1.752,0,0,1,3.159-.265,1.757,1.757,0,0,0,2.59.519,25.964,25.964,0,0,0,9.876-17.419l.517-4.294A13.17,13.17,0,0,0,59.976,17.394Z" style="fill:#a8dba8"/><path d="M24.188,43.67a28.973,28.973,0,0,1-7.027-23.346l.681-4.763a15.05,15.05,0,0,1,2.219-6.112A12.769,12.769,0,0,0,4.024,16.394a13.17,13.17,0,0,0-.916,6.866l.517,4.294A25.964,25.964,0,0,0,13.5,44.973a1.757,1.757,0,0,0,2.59-.519,1.752,1.752,0,0,1,3.159.265L25.318,61l1.932-.518L24.384,43.466C24.318,43.532,24.25,43.6,24.188,43.67Z" style="fill:#79bd9a"/></g></g><g id="Stroke_Close_copy" data-name="Stroke Close copy"><path d="M60.893,15.993A13.84,13.84,0,0,0,44.342,8.282c-.036-.049-.069-.1-.107-.152a15.275,15.275,0,0,0-24.47,0c-.038.049-.071.1-.107.152A13.84,13.84,0,0,0,3.107,15.993a14.193,14.193,0,0,0-.992,7.387l.517,4.294A27.134,27.134,0,0,0,12.888,45.763a2.732,2.732,0,0,0,2.209.52,2.762,2.762,0,0,0,1.86-1.328.752.752,0,0,1,1.356.113l6.068,16.281a1,1,0,0,0,.936.651,1.015,1.015,0,0,0,.26-.034l1.931-.518a1,1,0,0,0,.728-1.132L25.468,43.881a1.724,1.724,0,0,1,1.357-.122A1.656,1.656,0,0,1,28,45.3l.771,15.749a1,1,0,0,0,1,.951h4.464a1,1,0,0,0,1-.951L36,45.3a1.656,1.656,0,0,1,1.173-1.541,1.724,1.724,0,0,1,1.357.122L35.764,60.316a1,1,0,0,0,.728,1.132l1.931.518a1.015,1.015,0,0,0,.26.034,1,1,0,0,0,.936-.651l6.069-16.281a.751.751,0,0,1,1.355-.113,2.762,2.762,0,0,0,1.86,1.328,2.731,2.731,0,0,0,2.209-.52A27.134,27.134,0,0,0,61.368,27.674l.517-4.294A14.193,14.193,0,0,0,60.893,15.993ZM25.938,59.8,20.187,44.37a2.752,2.752,0,0,0-4.962-.415.755.755,0,0,1-.515.366.733.733,0,0,1-.6-.139A25.115,25.115,0,0,1,4.618,27.435L4.1,23.141A12.211,12.211,0,0,1,4.939,16.8a11.851,11.851,0,0,1,13.623-6.752,16.564,16.564,0,0,0-1.71,5.376L16.269,19.5l-1.443-5.384a1,1,0,1,0-1.931.518l1.471,5.493a8.483,8.483,0,0,0-7.717-1.75,1,1,0,1,0,.518,1.932,6.493,6.493,0,0,1,5.96,1.383l2.165,1.89.623,2.325c.033.663.085,1.324.161,1.982A12.6,12.6,0,0,0,7.69,25.368a1,1,0,1,0,.129,2,10.584,10.584,0,0,1,8.008,2.928l.789.758a29.673,29.673,0,0,0,1.209,4.008,8.48,8.48,0,0,0-7.034-1.224,1,1,0,1,0,.517,1.932,6.494,6.494,0,0,1,5.961,1.383l2.393,2.089a1,1,0,0,0,.2.119,30.077,30.077,0,0,0,3.579,4.978,1.025,1.025,0,0,0,.085.062l2.586,15.355ZM36.549,41.86A3.685,3.685,0,0,0,34,45.2L33.28,60H33V40.709l1.6-2.386a6.484,6.484,0,0,1,3.943-2.713,1,1,0,0,0-.448-1.949A8.47,8.47,0,0,0,33,37.13V33.709l1.6-2.385A6.491,6.491,0,0,1,40,28.445a1,1,0,0,0,0-2,8.486,8.486,0,0,0-7,3.687V26.345l1.22-2.019a10.6,10.6,0,0,1,6.977-4.9,1,1,0,0,0-.392-1.961,12.6,12.6,0,0,0-7.8,5.1V17.709l1.6-2.386a6.484,6.484,0,0,1,3.943-2.713,1,1,0,0,0-.448-1.949A8.47,8.47,0,0,0,33,14.13V8.445a1,1,0,0,0-2,0v5.683A8.486,8.486,0,0,0,26.076,10.7a1,1,0,1,0-.488,1.94A6.489,6.489,0,0,1,29.4,15.324L31,17.708v4.857a12.6,12.6,0,0,0-7.8-5.1,1,1,0,0,0-.392,1.961,10.6,10.6,0,0,1,6.977,4.9L31,26.343v3.788a8.485,8.485,0,0,0-7-3.686,1,1,0,0,0,0,2,6.491,6.491,0,0,1,5.4,2.879L31,33.708v3.42A8.486,8.486,0,0,0,26.076,33.7a1,1,0,1,0-.488,1.94A6.489,6.489,0,0,1,29.4,38.324L31,40.708V60h-.28L30,45.2a3.714,3.714,0,0,0-5.7-2.948,27.92,27.92,0,0,1-6.14-21.788l.681-4.764a13.76,13.76,0,0,1,2.527-6.365,13.277,13.277,0,0,1,21.282,0A13.76,13.76,0,0,1,45.168,15.7l.681,4.764a27.92,27.92,0,0,1-6.14,21.788A3.682,3.682,0,0,0,36.549,41.86ZM59.9,23.141l-.518,4.294a25.115,25.115,0,0,1-9.495,16.747.732.732,0,0,1-.6.139.755.755,0,0,1-.515-.366,2.752,2.752,0,0,0-4.962.415L38.063,59.8l-.175-.047L40.473,44.4a1.065,1.065,0,0,0,.086-.064,30.077,30.077,0,0,0,3.579-4.978,1,1,0,0,0,.2-.119l2.393-2.089a6.5,6.5,0,0,1,5.961-1.383,1,1,0,1,0,.517-1.932,8.482,8.482,0,0,0-7.034,1.224,29.673,29.673,0,0,0,1.209-4.008l.789-.758a10.6,10.6,0,0,1,8.008-2.928,1,1,0,1,0,.129-2,12.62,12.62,0,0,0-8.386,2.523c.076-.657.128-1.319.161-1.982l.623-2.325,2.165-1.89a6.5,6.5,0,0,1,5.96-1.383,1,1,0,0,0,.518-1.932,8.485,8.485,0,0,0-7.717,1.75l1.471-5.493a1,1,0,1,0-1.931-.518L47.731,19.5l-.583-4.083a16.556,16.556,0,0,0-1.71-5.376A11.849,11.849,0,0,1,59.061,16.8,12.211,12.211,0,0,1,59.9,23.141Z" style="fill:#3b8686"/></g></g></svg>
